<svg id="Layer_1" data-name="Layer 1" xmlns="http://www.w3.org/2000/svg" xmlns:xlink="http://www.w3.org/1999/xlink" viewBox="0 0 150 140"><defs><style>.cls-1{fill:#ff0;}.cls-2{fill:url(#linear-gradient);}.cls-3{fill:blue;}.cls-4{fill:url(#linear-gradient-2);}.cls-5{fill:url(#linear-gradient-3);}</style><linearGradient id="linear-gradient" x1="44.69" y1="34.46" x2="44.68" y2="4.5" gradientUnits="userSpaceOnUse"><stop offset="0" stop-color="#ff0"/><stop offset="0.23" stop-color="#990"/><stop offset="0.49" stop-color="#2c2c00"/><stop offset="0.61"/></linearGradient><linearGradient id="linear-gradient-2" x1="45.35" y1="130.14" x2="82.37" y2="109.88" gradientUnits="userSpaceOnUse"><stop offset="0.12" stop-color="blue"/><stop offset="0.43" stop-color="#00007a"/><stop offset="0.72"/></linearGradient><linearGradient id="linear-gradient-3" x1="34.78" y1="112.95" x2="34.78" y2="48.26" gradientUnits="userSpaceOnUse"><stop offset="0" stop-color="#ff0"/><stop offset="0.25" stop-color="#990"/><stop offset="0.54" stop-color="#2c2c00"/><stop offset="0.67"/></linearGradient></defs><title>BM-01</title><path class="cls-1" d="M59.29,24.41,52,2.65l-.3-.91L25.33,1.53V2l-.11,17H41.79Q53.63,19,59.29,24.41ZM44.19,58.06l0-.53H25v.53l-.1,16.16v.42H44.68v-.42ZM59.25,76.13l-.16-.07.16.48,9.14,26.74,0-.13a28,28,0,0,0,.69-6.41Q69.11,80.77,59.25,76.13ZM72,62.41,71.86,62a32.17,32.17,0,0,1-5.07,2.71,29.92,29.92,0,0,1,6.83,2.56Z"/><path class="cls-2" d="M64.43,39.77q-.3,8.23-5.37,12.85a17.53,17.53,0,0,1-6.54,3.71l-.17.05L44,31.89l-.55.09.73,25.54H25l.25-37.71V19H41.79q11.85,0,17.51,5.4l.37,1.1Z"/><path class="cls-3" d="M73.57,10.31Q65.36,3.53,52,1.74a75.09,75.09,0,0,0-10.24-.65H1.27V135.25H24.48v-.48h0l.11-17.44H21.62V74.22H49.49a22.79,22.79,0,0,1,9.59,1.85L52.53,56.87l-.17-.49a27.87,27.87,0,0,1-8.16,1.14H21.62V19H41.79q11.85,0,17.51,5.4a3.73,3.73,0,0,1,.37.35q4.8,4.88,4.8,13.92c0,.17,0,.34,0,.49s0,.4,0,.6l0,.06L71.86,62,72,61.9a27.73,27.73,0,0,0,8-8,28.89,28.89,0,0,0,4.74-16.29Q84.72,19.52,73.57,10.31ZM89.35,96.24Q89.24,84.47,83.46,76a26.41,26.41,0,0,0-9.66-8.66l-.19-.09.19.57,12.27,36.71h.47l2.81-8h0A2.43,2.43,0,0,0,89.35,96.24Z"/><path class="cls-4" d="M76.45,126.89q-10.83,8.35-29.28,8.36H44.83l.1-15.09,0-2.83h2.23q10.69,0,16.31-5.26a17.16,17.16,0,0,0,4.91-8.78l0,.09Z"/><path class="cls-1" d="M148.73,2.5l-.87,133.24-20.35-.17.29-45.36,2.43-57.75-.56-.1L92.85,135.3l-13.56-.1-2.82-8.25,0-.05-8-23.51,0-.09,0-.13a28,28,0,0,0,.69-6.41q0-16-9.86-20.62l-.16-.07L52.53,56.87l-.17-.49.17-.05a17.53,17.53,0,0,0,6.54-3.71Q64.13,48,64.43,39.77l0,.06L71.86,62a32.17,32.17,0,0,1-5.07,2.71,29.92,29.92,0,0,1,6.83,2.56l.19.57,12.27,36.71h.47l2.81-8h0l33-94.21Z"/><polygon class="cls-5" points="45.11 90.24 44.95 117.33 44.93 120.16 44.83 135.25 44.81 138.91 24.46 138.74 24.48 135.25 24.49 134.77 24.57 120.16 24.86 74.22 44.68 74.22 45.11 90.24"/></svg>