<?xml version="1.0" encoding="utf-8"?>
<!-- Generator: Adobe Illustrator 21.0.2, SVG Export Plug-In . SVG Version: 6.00 Build 0)  -->
<svg version="1.1" id="Layer_1" xmlns="http://www.w3.org/2000/svg" xmlns:xlink="http://www.w3.org/1999/xlink" x="0px" y="0px"
	 viewBox="0 0 150 150" style="enable-background:new 0 0 150 150;" xml:space="preserve">
<style type="text/css">
	.st0{fill:#E6E6E6;}
	.st1{fill:#999999;}
	.st2{opacity:0.8;fill:#FFFFFF;enable-background:new    ;}
	.st3{fill:#CCCCCC;}
</style>
<title>lamon</title>
<polygon class="st0" points="40.3,48.3 40.7,49.3 29.1,49.3 28.8,48.3 17.2,14.3 24.1,11.5 "/>
<path class="st1" d="M50.5,112.2l-3.8-11.1h16.8l0.9,1.9C61,105.2,56.2,108.6,50.5,112.2z"/>
<path class="st2" d="M56.1,129.8c-31.2,16.5-55.1,4.1-56.1,3.7c9.8,4,33.7-9.5,50.5-20.2c5.7-3.6,10.6-7,13.8-9.2
	c2.3-1.5,3.7-2.5,3.8-2.6l5.4,16.4l-2.3,1.9C66.5,123.6,61.5,126.9,56.1,129.8z"/>
<path class="st1" d="M71.2,120.8l2.5,6l-16.7,7l-1-3C61.5,127.9,66.5,124.6,71.2,120.8z"/>
<polygon class="st3" points="63.4,101.1 46.7,101.1 46.3,100.1 29.1,49.3 40.7,49.3 63,100.1 "/>
<polygon class="st0" points="110.9,48.3 110.4,49.3 122,49.4 122.3,48.4 134.3,14.6 127.5,11.6 "/>
<path class="st1" d="M99.9,112l3.9-11.1l-16.7-0.2l-0.9,1.9C89.3,104.9,94.1,108.3,99.9,112z"/>
<path class="st2" d="M94,129.5c31,16.9,55.1,4.8,56,4.3c-9.8,3.8-33.6-9.9-50.2-20.8c-5.7-3.7-10.6-7.1-13.7-9.3
	c-2.3-1.6-3.6-2.5-3.8-2.6l-5.6,16.3l2.4,2C83.7,123.2,88.7,126.6,94,129.5z"/>
<path class="st1" d="M79.1,120.4l-2.7,5.9l16.6,7.2l1.1-3C88.7,127.6,83.7,124.2,79.1,120.4z"/>
<polygon class="st3" points="87.1,100.8 103.8,101 104.2,100 122,49.4 110.4,49.3 87.5,99.8 "/>
</svg>
