<?xml version="1.0" encoding="UTF-8"?> <svg xmlns="http://www.w3.org/2000/svg" id="a2942aa7-bf0d-42c0-bc52-bf4c952347c5" viewBox="0 0 925.5 371.79"><defs><style>.cls-1{fill:#bfbfbf;}.cls-2{fill:#3f3d56;}.cls-3{fill:#6c63ff;}.cls-4{fill:#f2f2f2;}.cls-5{fill:#2f2e41;}.cls-6{fill:#ffb9b9;}.cls-7{opacity:0.1;isolation:isolate;}.cls-8{fill:#575a89;}</style></defs><title>avtar2</title><path class="cls-1" d="M175.64-31.85c23.06,43.93,63.88,81.08,174.76,107,101.81,23.8,90.72,71.84,190,78.47,69.39,4.63,79.87-4.12,141.74,23,69.32,30.4,73.64,66.61,136.66,115.94,7.73,6.05,114.75,120.05,199.74,89.29,97.29-35.21,153.17-232.17,138.85-344.93-37.58-296-585.64-552.18-839.23-390.18C196.25-275.34,140.14-99.48,175.64-31.85Z"></path><rect class="cls-2" y="368.83" width="925.5" height="3"></rect><path class="cls-2" d="M682.83,316.49s1.21-5.1,9.7-3.4,9.69,3.4,9.69,3.4Z"></path><path class="cls-2" d="M641,309.82s1.21-5.09,9.7-3.4,9.69,3.4,9.69,3.4Z"></path><path class="cls-2" d="M711.92,316.49s-6.79-4.13-9.7,0Z"></path><path class="cls-2" d="M680.28,304.85s-6.78-4.12-9.69,0Z"></path><path class="cls-2" d="M642.2,301.06a13.21,13.21,0,0,0,6.31,5.36,11.35,11.35,0,0,0-7.31-13.57A13.17,13.17,0,0,0,642.2,301.06Z"></path><path class="cls-3" d="M643.59,299.83a13.21,13.21,0,0,1,5.06,6.55,11.38,11.38,0,0,1-13.22-7.95A13.2,13.2,0,0,1,643.59,299.83Z"></path><path class="cls-2" d="M843.93,313.45s1.21-5.09,9.69-3.39,9.7,3.39,9.7,3.39Z"></path><path class="cls-2" d="M824.53,316.49q-8.84-1.39-17-2.36l2.09-4.19c-.72-.24-3.88,2.18-3.88,2.18L808.41,300c-3.64.48-5.33,12.85-5.33,12.85L799,308.73l2,4.66a376.68,376.68,0,0,0-43.09-2.17l1.79-3.58c-.73-.25-3.88,2.18-3.88,2.18l2.67-12.12c-3.64.48-5.33,12.85-5.33,12.85L749,306.42l2.15,4.95a240.73,240.73,0,0,0-24.73,2c1.79-5.58,8-10.94,8-10.94-4.81,1.5-7.31,3.93-8.6,6.19a97.48,97.48,0,0,1,5.2-33.7s-9.69,21.82-8.24,36.36l.19,2.59a97.59,97.59,0,0,0-12.67,2.63Z"></path><path class="cls-2" d="M761.26,327.52s44.61-6.55,72.24,0"></path><path class="cls-2" d="M695.56,336.49s44.61-6.55,72.24,0"></path><path class="cls-2" d="M778.23,338.89s26.42-6.7,42.79,0"></path><path class="cls-2" d="M852,312l-.43-.22c5.6-10.82,2.6-24.87-.89-34.75a106,106,0,0,0-9-19.07l.41-.26a106.76,106.76,0,0,1,9.09,19.17C854.68,286.83,857.7,301,852,312Z"></path><rect class="cls-2" x="846.09" y="266.18" width="17.5" height="0.48" transform="translate(439.1 1059.45) rotate(-79.64)"></rect><rect class="cls-2" x="842.96" y="269.41" width="0.49" height="23.84" transform="translate(34.27 649.79) rotate(-42.94)"></rect><rect class="cls-2" x="853.5" y="297.21" width="14.06" height="0.48" transform="translate(115.33 820.59) rotate(-54.14)"></rect><circle class="cls-3" cx="857.62" cy="250.79" r="2.42"></circle><circle class="cls-2" cx="831.2" cy="269.45" r="2.42"></circle><circle class="cls-2" cx="841.87" cy="271.88" r="2.42"></circle><circle class="cls-3" cx="837.02" cy="281.33" r="2.42"></circle><circle class="cls-2" cx="867.32" cy="287.39" r="2.42"></circle><circle class="cls-2" cx="859.32" cy="290.06" r="2.42"></circle><circle class="cls-2" cx="864.9" cy="297.82" r="2.42"></circle><circle class="cls-2" cx="839.44" cy="253.69" r="2.42"></circle><path class="cls-4" d="M697.56,240.84c0,30-17.81,40.43-39.79,40.43S618,270.81,618,240.84s39.79-68.09,39.79-68.09S697.56,210.88,697.56,240.84Z"></path><polygon class="cls-2" points="656.32 276.69 656.73 251.61 673.69 220.58 656.79 247.68 656.98 236.4 668.67 213.95 657.03 233.41 657.03 233.41 657.36 213.13 669.87 195.26 657.41 209.94 657.61 172.75 656.32 221.99 656.43 219.96 643.7 200.48 656.22 223.85 655.04 246.51 655 245.91 640.33 225.41 654.96 248.03 654.81 250.86 654.78 250.9 654.79 251.14 651.79 308.61 655.81 308.61 656.29 278.92 670.88 256.36 656.32 276.69"></polygon><path class="cls-4" d="M828.81,231.91c0,36.61-21.76,49.39-48.61,49.39s-48.61-12.78-48.61-49.39,48.61-83.18,48.61-83.18S828.81,195.3,828.81,231.91Z"></path><polygon class="cls-2" points="778.43 275.7 778.93 245.06 799.65 207.16 779.01 240.26 779.23 226.48 793.51 199.06 779.29 222.84 779.29 222.84 779.69 198.06 794.99 176.22 779.76 194.16 780.01 148.73 778.43 208.87 778.56 206.39 763.01 182.59 778.31 211.15 776.86 238.83 776.82 238.09 758.89 213.05 776.76 240.69 776.58 244.15 776.55 244.2 776.56 244.49 772.89 314.69 777.8 314.69 778.39 278.43 796.21 250.86 778.43 275.7"></polygon><rect class="cls-4" x="684.39" y="216.93" width="0.82" height="7.63"></rect><rect class="cls-4" x="709.53" y="216.93" width="0.82" height="7.63"></rect><rect class="cls-4" x="693.04" y="172.2" width="0.82" height="7.63"></rect><path class="cls-5" d="M719.68,219.39V229.6a245.57,245.57,0,0,1,2.46,30.83c0,14.37-4,47.85-4,47.85s-7.95,2.84-8.51-1.51-2.08-27.43-2.08-30.83S701,246.63,701,246.63l-4.16,28.74s1.32,34,0,35-7.76,2.65-8.51.95-4.73-38.21-4.73-38.21-3.22-47.66-1.33-50.49,3.6-5.11,3.6-5.11S712.87,210.88,719.68,219.39Z"></path><path class="cls-5" d="M717.22,307.15l.48,3.08c.15,1,.26,2.11.31,3.17.07,1.55.33,3.94,1.21,4.32,1.32.56,9.92,7.81,3.86,8.19s-9.08,1-10.87-.36c-2.12-1.65.28-.9-.66-.9s-2.08,0-2.46-1.52.57-4.16.57-4.16V307.15Z"></path><path class="cls-5" d="M689,307l-.47,3.08a30.64,30.64,0,0,0-.31,3.17c-.08,1.55-.33,3.94-1.22,4.32-1.32.56-9.91,7.81-3.86,8.19s9.08,1,10.87-.36c2.12-1.65-.28-.9.67-.9s2.08,0,2.45-1.51-.56-4.17-.56-4.17V307Z"></path><path class="cls-6" d="M694.34,137.31s3.21,7.94,5.48,9.27S701,154,701,154l-5.68,8h-4.54l-5.48-9.46s-.38-6.24-1.51-7.75S694.34,137.31,694.34,137.31Z"></path><path class="cls-7" d="M694.34,137.31s3.21,7.94,5.48,9.27S701,154,701,154l-5.68,8h-4.54l-5.48-9.46s-.38-6.24-1.51-7.75S694.34,137.31,694.34,137.31Z"></path><path class="cls-3" d="M699.07,153.58l8.51,1.89,6.24,62.79s-3.41.56-6.81,5.1-7.57,3.79-9.65,2.65-10.4-4.35-10.59-5.67.38-24.59.38-24.59l-5.3-36.31,2.65-4h4.73l3.78,3.21Z"></path><circle class="cls-6" cx="686.2" cy="137.31" r="9.83"></circle><path class="cls-8" d="M700.39,150.36s18.53,1.89,20.24,5.86-1.14,21.56-1.14,21.56,6.81,15.32,6.62,18.92,6.43,28.18-.76,25.34-4.91-10.21-8.51-4.92-5.1,4.54-5.1,4.54-3.6,5.86-4.73,5.3-1.89-4.92.57-7,2.08-5.68-2.65-12.48-9.65-42.56-6.81-48S700.39,150.36,700.39,150.36Z"></path><polygon class="cls-6" points="719.68 222.98 716.47 226.01 712.49 223.36 714.2 219.39 719.68 222.98"></polygon><path class="cls-8" d="M686.77,153.58s-14.37,5.29-14.37,11S681.1,195,681.1,195a67.4,67.4,0,0,1-.38,7.95c-.38,1.51-6.33,14.71-1.13,15.88,3.24.74,5.9,2.67,6.14,5.39.29,3.24-2.19,7.32-2,8,.37,1.33,2.64,3.22,2.45,2.27s1.52-14.56,4.17-20.61-1.14-46.72-1.9-52A57.35,57.35,0,0,0,686.77,153.58Z"></path><polygon class="cls-6" points="679.21 222.61 682.61 230.74 685.16 225.54 682.23 219.01 679.21 222.61"></polygon><path class="cls-3" d="M697.28,143.4a17.6,17.6,0,0,0,5,1.29c1.89,0,9.65,4,7,6.43s-6.62,3-8.51,6.62-2.84,4.16-2.84,4.16l-3.37-4.53s4.69-5.31,4.51-7A69.7,69.7,0,0,0,697.28,143.4Z"></path><path class="cls-3" d="M684.75,148s-2.33.9-2.9,2.41-4.16,4.35-2.64,5.11,8.13,3.78,9.45,4.35,3.79-1.61,3.79-1.61-3.31-1.89-3.31-3.22S684.75,148,684.75,148Z"></path><path class="cls-8" d="M676.94,161.9,672.4,163s-6.24,28-4.35,35,10.78,28,10.78,28l5.67-6.62s-2.47-15-3.88-16-.47-3.06-.47-3.63.57-.19-.75-1.51,4.91-8.7,3.21-10.78S676.94,161.9,676.94,161.9Z"></path><path class="cls-7" d="M721.67,167.1l-2.75-10.31s7.38,5.3,8.89,13.05,7.38,23.26,3.6,30.07S721,226.39,718.73,226s-7.75-5.11-7.94-5.86,9.84-18.16,8.32-19.48-1.13-4.73,0-5.49,2.46-4.35,1.52-4.16-3.79-1.7-3.22-3.78-2.84-16.08-2.84-16.08Z"></path><path class="cls-8" d="M718,155.47l2.65.75s7.37,5.3,8.88,13.05,7.38,23.27,3.6,30.07-10.4,26.48-12.67,26.1-7.76-5.1-8-5.86,9.84-18.16,8.32-19.48-1.13-4.73,0-5.48,2.46-4.35,1.52-4.17-3.78-1.7-3.22-3.78-2.83-16.07-2.83-16.07Z"></path><path class="cls-5" d="M693.84,128.43l1.84-.67a13.15,13.15,0,0,0-9.22-3.52l1.51-1.51a6.86,6.86,0,0,0-7.05,2.18,30,30,0,0,0-5.07,6.48h-2l.82,1.65-2.89,1.65,3-.3a8.25,8.25,0,0,0,.28,4.27l.67,1.85s2.68-5.37,2.68-6v1.68s1.84-1.51,1.84-2.52l1,1.18.5-1.85,6.21,1.85-1-1.51,3.86.5L689.31,132s4.36,2.18,4.53,4,2.34,4.19,2.34,4.19l1-1.68S698.7,131,693.84,128.43Z"></path><ellipse class="cls-6" cx="693.46" cy="136.13" rx="1.44" ry="2.27"></ellipse></svg> 