<?xml version="1.0" encoding="UTF-8"?> <svg xmlns="http://www.w3.org/2000/svg" xmlns:xlink="http://www.w3.org/1999/xlink" id="Layer_1" data-name="Layer 1" viewBox="0 0 200 100"><defs><style>.cls-1{fill:none;}.cls-2{clip-path:url(#clip-path);}.cls-3{fill:#c74e1f;}</style><clipPath id="clip-path"><rect class="cls-1" y="28" width="200" height="44"></rect></clipPath></defs><title>Untitled-1</title><g id="g10"><g id="g12"><g id="g14"><g class="cls-2"><g id="g16"><path id="path22" class="cls-3" d="M88.23,38a4,4,0,0,0-2-.49q-3.17,0-3.17,4v2.91h4.42v2.55H83.06V63.22H80V46.93h-3.2V44.38H80V41.32a6.4,6.4,0,0,1,1.7-4.63A5.69,5.69,0,0,1,86,34.92a5.94,5.94,0,0,1,2.19.33V38ZM71.73,50.1q0-5.16-2.41-8a8.25,8.25,0,0,0-6.71-2.89,8.83,8.83,0,0,0-4.85,1.37,9,9,0,0,0-3.32,3.89,13.08,13.08,0,0,0-1.18,5.63,13.49,13.49,0,0,0,1.13,5.64,8.78,8.78,0,0,0,3.23,3.83A9.42,9.42,0,0,0,69.25,58q2.48-2.86,2.48-7.91M75,49.69a16.71,16.71,0,0,1-1.54,7.39A11.19,11.19,0,0,1,69,62a12.74,12.74,0,0,1-6.63,1.72A12.45,12.45,0,0,1,55.94,62a11.12,11.12,0,0,1-4.37-4.73A15.18,15.18,0,0,1,50,50.34,16.37,16.37,0,0,1,51.59,43a11.31,11.31,0,0,1,4.48-4.89,13.27,13.27,0,0,1,6.77-1.7,12,12,0,0,1,6.31,1.68,11.16,11.16,0,0,1,4.3,4.71A15.24,15.24,0,0,1,75,49.69"></path><path id="path24" class="cls-3" d="M36.71,68.33h0V31.77L23.61,28,.06,36.83l-.06,0V63.28l8-3.14V38.63l15.57-3.72V66.53L0,63.28,23.61,72h0l13.1-3.62v0ZM200,55.16a8,8,0,0,1-2.55,6.18,9.65,9.65,0,0,1-6.8,2.33,10.58,10.58,0,0,1-5.46-1.1v-3.2a10.06,10.06,0,0,0,5.5,1.73,6.4,6.4,0,0,0,4.51-1.57,5.4,5.4,0,0,0,1.71-4.19,5,5,0,0,0-1.73-4,7.61,7.61,0,0,0-5-1.46,37.59,37.59,0,0,0-4.47.22l.9-13.23h12.2v2.73H189.2l-.53,7.74,2.43-.09a9.58,9.58,0,0,1,6.51,2.08A7.36,7.36,0,0,1,200,55.16m-20.84.07a6.56,6.56,0,0,0-1.36-4.36,4.67,4.67,0,0,0-3.78-1.6,5,5,0,0,0-3.71,1.56,5.18,5.18,0,0,0-1.51,3.76,7.16,7.16,0,0,0,1.5,4.64,4.85,4.85,0,0,0,7.45.24,6.26,6.26,0,0,0,1.41-4.24m3.08-.39a9.58,9.58,0,0,1-1.07,4.55,7.81,7.81,0,0,1-3,3.16A8.19,8.19,0,0,1,174,63.68a7.2,7.2,0,0,1-6.21-3.19q-2.25-3.18-2.25-8.88a22.18,22.18,0,0,1,1.33-8,11.93,11.93,0,0,1,3.78-5.34,9,9,0,0,1,5.65-1.88,10.6,10.6,0,0,1,4.38.76V40a9.3,9.3,0,0,0-4.31-1,6.46,6.46,0,0,0-5.6,3.14,14.73,14.73,0,0,0-2.11,8.36h.08a6.22,6.22,0,0,1,6-3.74A7.13,7.13,0,0,1,180.19,49a8.35,8.35,0,0,1,2.05,5.89m-19.84.91a7.23,7.23,0,0,1-2.56,5.75,10,10,0,0,1-6.72,2.17,11,11,0,0,1-6-1.43V59a9.64,9.64,0,0,0,6.11,2.1,6.74,6.74,0,0,0,4.43-1.37A4.56,4.56,0,0,0,159.31,56q0-5.16-7.36-5.17h-2.19V48.29h2.07q6.53,0,6.52-4.85c0-3-1.66-4.49-5-4.49a8.45,8.45,0,0,0-5.24,1.87V37.9a11.43,11.43,0,0,1,6-1.51,7.78,7.78,0,0,1,5.28,1.74,5.71,5.71,0,0,1,2,4.55c0,3.47-1.76,5.71-5.26,6.7v.07a7.28,7.28,0,0,1,4.5,2,5.76,5.76,0,0,1,1.72,4.27M136.35,52a6.33,6.33,0,0,0-1.26-4.06,4.29,4.29,0,0,0-3.45-1.44A4.84,4.84,0,0,0,128.05,48a7,7,0,0,0-1.87,4Zm3.09,2.56h-13.3a7.07,7.07,0,0,0,1.68,4.87,5.88,5.88,0,0,0,4.46,1.68A9.28,9.28,0,0,0,138.12,59v2.82a10.83,10.83,0,0,1-6.56,1.82,7.89,7.89,0,0,1-6.29-2.61,10.59,10.59,0,0,1-2.26-7.2,11.51,11.51,0,0,1,1.13-5.11,8.64,8.64,0,0,1,3.12-3.57,8,8,0,0,1,4.41-1.27,7.15,7.15,0,0,1,5.72,2.38A9.89,9.89,0,0,1,139.44,53Zm-18.54,7.8a9.82,9.82,0,0,1-5.17,1.33,9.09,9.09,0,0,1-4.63-1.19,8.15,8.15,0,0,1-3.19-3.36,10.32,10.32,0,0,1-1.14-4.87,10.46,10.46,0,0,1,2.68-7.51,9.34,9.34,0,0,1,7.13-2.84,9.55,9.55,0,0,1,4.36,1V48a7.74,7.74,0,0,0-4.49-1.47,6,6,0,0,0-4.76,2.09,7.89,7.89,0,0,0-1.83,5.4,7.46,7.46,0,0,0,1.74,5.21,6,6,0,0,0,4.66,1.91,7.62,7.62,0,0,0,4.64-1.62v2.87Zm-17.22.86h-3V44.37h3Zm.52-25.59a1.86,1.86,0,0,1-.59,1.41,2.06,2.06,0,0,1-2.8,0,1.88,1.88,0,0,1-.57-1.43,1.94,1.94,0,0,1,.56-1.37,2,2,0,0,1,2.82,0,1.85,1.85,0,0,1,.58,1.38M98.63,38a4,4,0,0,0-2-.49q-3.16,0-3.17,4v2.91h4.42v2.55H93.46V63.22h-3V46.93h-3.2V44.38h3.2V41.32a6.4,6.4,0,0,1,1.7-4.63,5.68,5.68,0,0,1,4.3-1.77,5.94,5.94,0,0,1,2.19.33V38"></path></g></g></g></g></g></svg> 