<?xml version="1.0" encoding="UTF-8"?> <svg xmlns="http://www.w3.org/2000/svg" id="Layer_1" data-name="Layer 1" viewBox="0 0 200 100"><defs><style>.cls-1{fill:#151616;}.cls-1,.cls-2,.cls-3{fill-rule:evenodd;}.cls-2{fill:#fcbb17;}.cls-3{fill:#989899;}</style></defs><title>Untitled-1</title><g id="g4"><g id="g6"><path id="path8" class="cls-1" d="M77.09,24.29c2.38,0,4.74,0,7.1,0l9.47,18.27V24.29h5.68v29H93.1L82.77,32.69V53.26H77.09v-29Z"></path><path id="path10" class="cls-1" d="M163.44,31.33a11.13,11.13,0,1,1-11.12,11.13,11.13,11.13,0,0,1,11.12-11.13Zm0,5.61a5.52,5.52,0,1,1-5.52,5.52A5.52,5.52,0,0,1,163.44,36.94Z"></path><path id="path12" class="cls-1" d="M112.22,31.33A11.13,11.13,0,1,1,101.1,42.46a11.13,11.13,0,0,1,11.12-11.13Zm0,5.61a5.52,5.52,0,1,1-5.52,5.52A5.53,5.53,0,0,1,112.22,36.94Z"></path><path id="path14" class="cls-1" d="M125.19,32V53.26h6.32v-10a6.43,6.43,0,0,1,.42-2.28,7.2,7.2,0,0,1,3.27-4.15,2.72,2.72,0,0,1,1.94-.49h4V47.82c.21,6.33,6.71,6.49,11.45,5.2-.27-1.41-.54-2.83-.8-4.24-2.71.63-4.64.81-4.64-2.59V36.3h4.56V31.81h-4.4v-6h-5.05l-1.44,6H137.3a6.91,6.91,0,0,0-4.13,1.29,6.45,6.45,0,0,0-2.46,3.36l-1.84-4.41L125.19,32Z"></path><path id="path16" class="cls-1" d="M176.13,31.87V53.36h6V39.14c0-2,4.79-3.77,6.79-1.33a1.8,1.8,0,0,1,.48,1.59V53.25h6.1V38.45a7.68,7.68,0,0,0-1.84-4.63c-1.51-1.92-3.69-2.77-6.82-2.19-2.12.4-3.81,1.61-5.77,3.58-.43-1.1-.85-2.19-1.27-3.29l-3.67-.05Z"></path><path id="path18" class="cls-1" d="M196.68,32.31h.72v-.5h-1.94v.5h.72v2.32h.5Zm3.32-.5h-.72L198.85,34h0l-.43-2.22h-.73v2.82h.47V32.28h0l.44,2.35h.49l.45-2.35h0v2.35H200Z"></path></g><path id="path20" class="cls-2" d="M33.5,83.68A33.5,33.5,0,1,1,67,50.18a33.54,33.54,0,0,1-33.5,33.5Zm0-56.4h0A22.91,22.91,0,1,0,49.69,34,22.75,22.75,0,0,0,33.5,27.28Z"></path><path id="path22" class="cls-2" d="M72.6,11.53H70v2.61H72.6Z"></path><path id="path24" class="cls-2" d="M72.6,6.32H70V8.94H72.6Z"></path><path id="path26" class="cls-2" d="M65.08,14.12H62.64v2.55h2.44V14.12Z"></path><path id="path28" class="cls-1" d="M60.27,19.13H57.81v2.43h2.46Z"></path><path id="path30" class="cls-1" d="M67.82,16.67H65.08v2.46h2.74Z"></path><path id="path32" class="cls-1" d="M55.36,19.13h2.45V16.79H55.36Z"></path><path id="path34" class="cls-1" d="M65.08,19.13H62.64v2.43h2.44Z"></path><path id="path36" class="cls-1" d="M70,8.94H67.41v2.59H70Z"></path><path id="path38" class="cls-1" d="M67.41,11.53H62.64v2.59h4.77Z"></path><path id="path40" class="cls-1" d="M60.27,19.13h2.37v-5H60.27Z"></path><path id="path42" class="cls-1" d="M60.27,21.56V24H57.81V21.56H53.72v1.78H51.54v2.18H54V28H51.54V25.52h-2.6v3.82H46.49v2.43H44.86v2.45H43.07a136.12,136.12,0,0,0-8.58,16.12C29,42.69,24.73,39.66,21.37,38.57c-1.82-.55-4,1.42-1,4.53C27.29,50.7,29.47,57,31.57,62c1.11,2.65,6.1,3.06,7.1.36A81.35,81.35,0,0,1,47.54,45V42.3h2V39.84h2V37H54V34.25H51.51v-2.5H54v2.5h2.42V31.77h1.94v-3h2.19V26.74h2.1V21.56Z"></path><path id="path44" class="cls-3" d="M104.83,73.05l-.69,1.09a7.32,7.32,0,0,0,2.21,1.17,8.64,8.64,0,0,0,2.83.47,6,6,0,0,0,3.89-1.15,3.9,3.9,0,0,0,1.39-3.13,3.79,3.79,0,0,0-1.33-3,10.82,10.82,0,0,0-3.34-1.74h0a8.74,8.74,0,0,1-2.6-1.3,2.61,2.61,0,0,1-.08-3.78,3.75,3.75,0,0,1,2.48-.69,7.48,7.48,0,0,1,2.37.36,7.3,7.3,0,0,1,1.3.57l.55-1.2a8.42,8.42,0,0,0-1.64-.69,9.45,9.45,0,0,0-2.64-.32,5.42,5.42,0,0,0-3.51,1,3.52,3.52,0,0,0-1.26,2.82A3.74,3.74,0,0,0,106,66.46a9.72,9.72,0,0,0,3,1.68,11,11,0,0,1,2.73,1.35,2.58,2.58,0,0,1,1,2.17,2.46,2.46,0,0,1-1,2.07,4.21,4.21,0,0,1-2.6.73,7.23,7.23,0,0,1-2.68-.5,8.5,8.5,0,0,1-1.7-.91Z"></path><path id="path46" class="cls-3" d="M115.48,64.36h1.7l3.07,9.93,2.92-9.93h1.66l-4,12.58c-.64,2-1.72,3.13-3.77,3.13a4,4,0,0,1-1.24-.21l.2-1.24a4.48,4.48,0,0,0,.92.12,2.58,2.58,0,0,0,2.58-2.17Z"></path><path id="path48" class="cls-3" d="M138.82,64.16c2.28,0,2.85,1.91,2.85,3.77v7.95H140V68c0-1.22-.18-2.38-1.7-2.38a4.78,4.78,0,0,0-3.2,1.76v8.54h-1.66V68c0-1.22-.18-2.38-1.71-2.38a5,5,0,0,0-3.2,1.78v8.52h-1.65V64.36h.94l.48,1.89a5.61,5.61,0,0,1,3.94-2.09,2.58,2.58,0,0,1,2.6,2,5.58,5.58,0,0,1,4-2Z"></path><path id="path50" class="cls-3" d="M151.1,69.78c-2.51.48-4.17,1-4.79,1.79a1.77,1.77,0,0,0-.39,1.25,1.69,1.69,0,0,0,2,1.88,5.5,5.5,0,0,0,3.23-1.28V69.78Zm0-1.68c0-1.69-.51-2.54-2.33-2.54a7,7,0,0,0-3.27,1l-.62-1.13a6.83,6.83,0,0,1,4-1.31c2.79,0,3.85,1.54,3.85,4v7.67h-.95s-.48-1.41-.5-1.41a5.24,5.24,0,0,1-3.6,1.59,3.18,3.18,0,0,1-3.47-3.15,3,3,0,0,1,1.61-2.81,16.7,16.7,0,0,1,5.25-1.43Z"></path><path id="path52" class="cls-3" d="M156.45,64.36h.94l.49,2A5.55,5.55,0,0,1,162,64.16c2.45,0,3.09,1.91,3.09,3.77v7.95h-1.65V68c0-1.22-.28-2.38-1.94-2.38a5,5,0,0,0-3.43,1.85v8.45h-1.66V64.36Z"></path><path id="path54" class="cls-3" d="M167.42,65.56v-1.2h1.78l.48-3.29h1.13v3.29h2.58v1.2h-2.58v7.49c0,1.1.18,1.72,1.29,1.72a4.77,4.77,0,0,0,1.34-.23l.25,1.15a4.06,4.06,0,0,1-1.66.37c-2,0-2.88-1-2.88-2.9v-7.6Z"></path><path id="path56" class="cls-3" d="M182.46,69.38c-.09-2.62-1-4-2.7-4-1.56,0-2.65,1.25-2.78,4ZM180,74.73a5.17,5.17,0,0,0,3.16-1.15l.71,1a5.44,5.44,0,0,1-4,1.52c-2.88,0-4.7-2.3-4.7-5.94s1.8-6,4.54-6,4.42,2.07,4.42,6v.37H177c.12,2.7,1,4.15,3.09,4.15Z"></path><path id="path58" class="cls-3" d="M186.2,70.21c0-2.83,1.15-6,4.67-6a5.25,5.25,0,0,1,3.53,1.19l-.69,1.11a4.71,4.71,0,0,0-2.84-1c-2.62,0-2.92,2.79-2.92,4.75s.37,4.49,3,4.49a4.06,4.06,0,0,0,2.85-1.15l.78.94a4.94,4.94,0,0,1-3.73,1.54c-3.43,0-4.67-3.08-4.67-5.85Z"></path><path id="path60" class="cls-3" d="M87.93,64.36h1.7l3.07,9.93,2.92-9.93h1.66l-4,12.58c-.64,2-1.72,3.13-3.77,3.13a4.14,4.14,0,0,1-1.25-.21l.21-1.24a4.38,4.38,0,0,0,.92.12A2.59,2.59,0,0,0,92,76.57Z"></path><path id="path62" class="cls-3" d="M84.81,68.87c0,.23,0,.47.06.71s0,.5,0,.73,0,.3,0,.45,0,.29,0,.43,0,.27-.06.41-.06.27-.09.39-.07.26-.11.38a3.45,3.45,0,0,1-.14.34,3.18,3.18,0,0,1-.16.32,2.9,2.9,0,0,1-.19.29h0l-.21.26-.24.23-.26.2-.29.17h0a1.6,1.6,0,0,1-.3.13l-.34.1-.35.06-.38,0h-.25l-.25,0-.23,0h0l-.18,0h0a1,1,0,0,1-.21-.08l-.2-.09h0l-.2-.09L80,74h0l-.16-.11-.16-.12h0l-.14-.12-.14-.12-.12-.13-.11-.12-.09-.11L79,73h0V67.06h0v0h0l.28-.25a3.55,3.55,0,0,1,.31-.23h0a3.28,3.28,0,0,1,.31-.2l.35-.18A2.75,2.75,0,0,1,80.6,66l.38-.11.39-.06.4,0H82l.26,0a2.61,2.61,0,0,1,.27.06l.27.07.26.1.25.14a2.2,2.2,0,0,1,.25.17l.24.21a1.79,1.79,0,0,1,.22.25,3.4,3.4,0,0,1,.21.28l.18.34a3.17,3.17,0,0,1,.15.37,2.13,2.13,0,0,1,.12.44c0,.18.07.38.1.6Zm1.64,2.66a6.08,6.08,0,0,0,.08-.65c0-.23,0-.46,0-.71s0-.41,0-.64,0-.45-.05-.66,0-.39-.07-.56a3.51,3.51,0,0,0-.08-.42,3.64,3.64,0,0,0-.11-.39,3,3,0,0,0-.13-.36L86,66.8c0-.1-.1-.2-.16-.3l-.18-.28-.2-.25a2.31,2.31,0,0,0-.2-.24l-.22-.2-.24-.19-.23-.17L84.27,65h0L84,64.89l-.25-.11-.25-.09-.25-.08-.25,0-.25,0-.24,0-.23,0h-.23l-.46,0a3.18,3.18,0,0,0-.43.06l-.41.1a2.5,2.5,0,0,0-.38.15L80,65l-.33.22a2.34,2.34,0,0,0-.31.24,3.83,3.83,0,0,0-.29.28H79V59.65H77.37V75.54h1.18l.35-1.13h0v0H79v0l0,.07h0l.07.08,0,0h0l.06.07h0l.1.12.11.12.13.11.15.12h0l.17.12h0l.18.11.21.1.22.1h0l.22.08h0l.26.07.28,0a1.55,1.55,0,0,0,.31,0h.32a3.24,3.24,0,0,0,.44,0,3.18,3.18,0,0,0,.43-.06,3.39,3.39,0,0,0,.43-.11l.4-.14h0l.4-.19a3,3,0,0,0,.38-.24,4.39,4.39,0,0,0,.36-.28l.33-.32h0q.15-.16.3-.36c.09-.13.19-.27.27-.41A5.19,5.19,0,0,0,86,73.2l.21-.5a5.18,5.18,0,0,0,.17-.56,5.49,5.49,0,0,0,.12-.61Z"></path></g></svg> 