<?xml version="1.0" encoding="UTF-8"?> <svg xmlns="http://www.w3.org/2000/svg" id="Layer_1" data-name="Layer 1" viewBox="0 0 200 100"><defs><style>.cls-1{fill:#ffd519;}.cls-1,.cls-2{fill-rule:evenodd;}</style></defs><title>Untitled-1</title><polygon class="cls-1" points="57.78 7.78 142.22 7.78 142.22 92.22 57.78 92.22 57.78 7.78"></polygon><path class="cls-2" d="M83,34.7c3.33,0,6,3.42,6,7.64S86.34,50,83,50s-6-3.42-6-7.61,2.68-7.64,6-7.64Zm6.93.34h6.5c3.21,0,4.71,1.79,4.71,4.25a4.4,4.4,0,0,1-2.28,3.86l2.35,6.77H97l-1.76-6H93.85v6H89.94V35Zm3.91,3.14V40.9h2a1.36,1.36,0,1,0,0-2.72ZM123.77,35h3.85l3.91,8V35h2.93V49.92h-3l-4.68-9.52v9.52h-3V35ZM65.35,35h3.83l3.91,8V35H76V49.92H73L68.34,40.4v9.52h-3V35Zm36.36,0h8.78v3.14H108V49.92h-3.64V38.18h-2.65V35Zm15-.34c3.3,0,6,3.42,6,7.64S120,50,116.68,50s-6-3.42-6-7.61,2.71-7.64,6-7.64Zm0,3.15c-1.26,0-2,2-2,4.49s.71,4.47,2,4.47,2-2,2-4.47-.77-4.49-2-4.49ZM83,37.85c-1.23,0-2,2-2,4.49s.71,4.47,2,4.47,2-2,2-4.47-.77-4.49-2-4.49Z"></path><path class="cls-2" d="M75.55,51h8.23v3h-2.5V64.43H77.92V54H75.55V51Zm54-.21c1.94,0,4.53,1.07,4.53,3.11-.86.24-1.73.52-2.59.77,0-.83-.89-1.3-1.76-1.33s-1.44.28-1.44,1c0,1,.86,1.23,1.94,1.48,2.31.52,4.74,1.54,4.4,4.5a4.86,4.86,0,0,1-4.8,4.1c-3.33,0-5.36-1.95-5.36-4.13l3.14-.28c0,1.17.68,1.72,2,1.72.9,0,1.51-.46,1.51-1.14,0-1.32-2-1.44-3.73-2.15a4,4,0,0,1-2.58-3.61c0-2.59,2.34-4,4.71-4ZM74.78,51V61c0,4.65-9.36,4.65-9.36,0V51h3.35v9a1.68,1.68,0,1,0,3.36,0V51Zm40.42,0h8.63v2.71h-5.27V55.9h4.32v3h-4.32V61.2h5.27v3.23H115.2V51ZM89,51h3.32V61.2H97v3.23H89V51Zm21.93,0h3.36v13.4h-3.36V51ZM97.86,51h3.33v13.4H97.86V51ZM84.7,51H88v13.4H84.7V51Zm17.23,0h8.25v3h-2.49V64.43h-3.36V54h-2.4V51Z"></path><path class="cls-2" d="M133,65.33v-.77h-.28V64.4h.77v.16h-.27v.77Zm.59,0V64.4h.27l.19.71.18-.71h.31v.93h-.18v-.74l-.19.74h-.21l-.19-.74v.74Z"></path></svg> 