<?xml version="1.0" encoding="UTF-8"?> <svg xmlns="http://www.w3.org/2000/svg" id="Layer_1" data-name="Layer 1" viewBox="0 0 200 100"><defs><style>.cls-1{fill:#231f20;}.cls-1,.cls-2,.cls-3{fill-rule:evenodd;}.cls-2{fill:#f1471d;}.cls-3,.cls-4{fill:#fff;}</style></defs><title>Untitled-1</title><g id="g10"><g id="g12"><path id="path14" class="cls-1" d="M135,77.46l.17-1.31h-1.3l-1.46,8.37h1.4l.9-5a3.16,3.16,0,0,1,2-2.24c2.06-.77,1.89,1.48,1.61,2.86l-.81,4.38h1.33l.85-4.22c.28-1.4.88-2.65,2.08-3,2.11-.68,1.83,1.55,1.58,2.92l-.81,4.34h1.39l.83-4.23a9.26,9.26,0,0,0,.2-2.79c-.45-2-2.64-1.88-4-.91-.55.4-.63.75-1,1-.46-1.17-.64-1.77-2.22-1.68a3.17,3.17,0,0,0-2.28,1.19l-.41.34"></path><path id="path16" class="cls-1" d="M164,76.14l-.16,1.11h1.07l-1.34,7.25H165l1.35-7.23,3,0L168,84.51l1.41,0,1.65-8.37h-4.47a3.41,3.41,0,0,1,1.15-2.5c.92-.7,1.93-.3,3,0l.4-1.12a4,4,0,0,0-5.65,2.23c-.56,1.56.22,1.36-1.51,1.44"></path><path id="path18" class="cls-1" d="M148,83.11c.15-1.86.81-5.15,2.7-5.84C154.7,75.81,153.06,85.41,148,83.11Zm.91-5.64.16-1.37h-1.22l-2.22,11.82h1.43l.67-3.57c1.88.49,2.9.53,4.41-.54,3.68-2.62,2.79-9.49-1.53-7.62-1.14.49-1.05.88-1.7,1.28"></path><path id="path20" class="cls-1" d="M186.26,77.34c-.46,6.43-3.66,7-4.57,5.45S181.86,76.16,186.26,77.34Zm.28-1.2c-1.91-.22-2.79-.43-4.34.72-2.71,2-3.14,6.6-.83,7.63a3.06,3.06,0,0,0,3.8-1.45l0,1.46h1.37a16,16,0,0,1,.24-2.27l1.9-10-1.42,0-.74,3.91"></path><path id="path22" class="cls-1" d="M62.3,82.73,61.82,84a5.48,5.48,0,0,0,5.35.05,3.38,3.38,0,0,0,1.08-4.74,5.77,5.77,0,0,0-1.89-1.46c-2.86-1.71-1.27-3.47-.12-3.8s1.92.13,2.88.41l.48-1.17c-2.11-1.35-6.22-.49-6.34,2.66-.13,3.37,5,3.06,3.89,6.09-.52,1.42-2.27,1.61-3.62,1.24l-1.23-.51"></path><path id="path24" class="cls-1" d="M120.66,82.73,120.14,84c1.7.72,3.54,1.15,5.29.06a3.37,3.37,0,0,0,1.2-4.66c-1-1.54-3.35-1.72-3.54-3.35a1.82,1.82,0,0,1,1.4-2,4.06,4.06,0,0,1,2.87.37l.59-1.22c-1.94-.57-3.81-1-5.31.49a3,3,0,0,0,0,4.6c1.13.88,3.58,1.58,2.83,3.7s-3.28,1.46-4.81.76"></path><path id="path26" class="cls-1" d="M108.47,87.08l.39,1.22c3.07-.65,5.26-5.74,6.63-8.62.51-1.06,1.31-2.41,1.72-3.56h-1.55l-3,6.58-1.23-6.55-1.52,0c.44,2.21.95,4.37,1.38,6.5.34,1.67.49,1.62-.49,2.82a5.75,5.75,0,0,1-2.35,1.64"></path><path id="path28" class="cls-1" d="M91,83.09,90.8,84.5h1.3c.29-1.21.48-2.91.71-4.15l.8-4.22H92.22l-1,4.65a3.34,3.34,0,0,1-2,2.55,1.36,1.36,0,0,1-1.71-.45c-.54-1,.58-5,.83-6.76H86.86l-1,5.6c-.31,1.74.36,3.13,2.49,3,1.54-.13,2.06-1.23,2.62-1.58"></path><path id="path30" class="cls-1" d="M72,79.69a3.8,3.8,0,0,1,1.26-2.1c2.36-1.69,3.83.92,1.75,1.73A9,9,0,0,1,72,79.69ZM76.31,84l-.19-1c-1.33.36-4.4,1.66-4.29-2.18,2.26,0,5.53-.13,5.56-2.67,0-2.73-3.41-2.68-5-1.23a5.63,5.63,0,0,0-1.74,5.94c1,2.73,4.87,1.84,5.68,1.13"></path><path id="path32" class="cls-1" d="M173.72,79.69c.29-1.21,2-3.62,3.61-2.35.42.33.77,1.44-.61,2A8.48,8.48,0,0,1,173.72,79.69ZM178,84.08l-.16-1.1c-1,.29-2.06.81-3.15.36a2.1,2.1,0,0,1-1.08-2.53c2.22,0,5.46-.16,5.49-2.67,0-2.8-3.56-2.64-5-1.23-3.44,3.28-2.73,9.68,3.94,7.17"></path><path id="path34" class="cls-1" d="M83.85,84.17,83.66,83c-5.91,2.62-4.79-7.3,1-5.61l.48-1.12C77.7,73.24,75,87.68,83.85,84.17"></path><path id="path36" class="cls-1" d="M106.17,74.57l-.3,1.54-1.13,0-.24,1.12,1.15,0-.73,3.55c-1.07,5.23,2.57,3.82,2.58,3.72l.13-1.16c-2.23.34-1.37-1.58-1.1-3.1l.59-3,2,0,.2-1.11-1.93,0,.33-2-1.53.4"></path><path id="path38" class="cls-1" d="M155.44,84.49l1.49,0,2.3-12.3h-1.44l-2.35,12.28"></path><path id="path40" class="cls-1" d="M97.12,77.83l.12-1.71-1.29,0-1.4,8.37,1.4,0,.79-3.91c.36-1.78,1.21-3.35,3-3.21l.3-1.42a2.76,2.76,0,0,0-2.94,1.88"></path><path id="path42" class="cls-1" d="M128.44,84.51h1.45l1.57-8.39h-1.37l-1.65,8.38"></path><path id="path44" class="cls-1" d="M100,84.51l1.5,0,1.56-8.37h-1.46L100,84.51"></path><path id="path46" class="cls-1" d="M159.31,84.51h1.46l1.57-8.39H161l-1.66,8.38"></path><path id="path48" class="cls-1" d="M102.82,72.89a.93.93,0,1,1-.92.92.93.93,0,0,1,.92-.92"></path><path id="path50" class="cls-1" d="M131.17,72.89a.93.93,0,0,1,0,1.85.93.93,0,1,1,0-1.85"></path><path id="path52" class="cls-1" d="M162.14,72.89a.93.93,0,1,1-.93.92.93.93,0,0,1,.93-.92"></path><path id="path54" class="cls-2" d="M7.45,11.7h185.7a6.48,6.48,0,0,1,6.46,6.46V59.88a6.47,6.47,0,0,1-6.46,6.46H7.45A6.48,6.48,0,0,1,1,59.88V18.16A6.48,6.48,0,0,1,7.45,11.7"></path><path id="path56" class="cls-3" d="M22.92,28.18C33,26,34.45,45.59,25.47,47.28,15.3,49.19,13.9,30.15,22.92,28.18ZM35.36,54.93l1.32-3.72-6.83-1.62c.12-.1,0,0,.25-.17a9.71,9.71,0,0,0,3.57-2.88c3.59-4.42,3.56-11.86,1.12-16.38a11,11,0,0,0-8-5.8,12.54,12.54,0,0,0-10.67,2.8c-6.73,5.92-6.14,21.76,5.59,24a20.7,20.7,0,0,1,3.06.45c.2,0,.47.15.81.25l9.75,3.11"></path><path id="path58" class="cls-3" d="M118.2,50.87a24.4,24.4,0,0,0,4.65-.06c.38-.32-.09-9.84.19-11.47l11,0,0,11.56,4.77,0,0-26.27h-4.79V35.06l-11.07,0V24.59l-4.72,0-.06,26.31"></path><path id="path60" class="cls-3" d="M90.15,24.26V50.87H94.9L95,45.61l1.59-3L102,50.84l5.77,0-5.83-8.38-2-2.82,1.63-1.92,5.23-5.85-5.67,0L96.51,38,95,40.14v-17l-4.83,0v1.15"></path><path id="path62" class="cls-3" d="M53.24,48.15c.07.14,0,0,.11.32l.23,2.38h4.13l-.14-9.46,0-9.51h-4.7c-.29.71-.1,8.1-.1,9.51,0,1.76.21,2.78-.6,4.11-1.38,2.26-4.82,2.64-6.1.25a8.2,8.2,0,0,1-.68-4.23l0-9.61-4.82,0,0,8.65c0,2.78-.08,5.55,1.08,7.68,1.9,3.45,6.41,3.8,9.29,2.12a6.31,6.31,0,0,0,1.26-1,14.08,14.08,0,0,1,1.11-1.2"></path><path id="path64" class="cls-3" d="M174.27,41.59c0,2.06.29,4-1.16,5.2-2.23,1.89-5.75,1.19-5.4-2C168,41.89,172,41.46,174.27,41.59Zm-10-8.57.89,3.21c1.8-.74,3-1.5,5.51-1.39,2.32.11,3.82,1.69,3.43,3.63-2.94.09-5.73.3-7.88,1.58-5.23,3.11-4,10.11,1.25,11.12a7.61,7.61,0,0,0,5.78-1.24c.76-.56.91-.91,1.31-1.13l.34,2,4.32,0c-.05-1.39-.24-2.74-.26-4.25-.1-7.1,1.47-14.59-7.17-15.14a14.66,14.66,0,0,0-4.12.35,24.4,24.4,0,0,0-3.4,1.2"></path><path id="path66" class="cls-3" d="M155.88,39.33h-8.32c.3-2.34,1.66-4.49,4.13-4.57C154.48,34.66,155.84,36.61,155.88,39.33Zm3.4,10.75-.63-3.32c-1.88.32-4.46,1.36-7.24.61a4.77,4.77,0,0,1-3.86-4.65h12.68a12.48,12.48,0,0,0-.87-7c-3-6.37-12.63-5.35-15.33.86-1.86,4.24-1.45,9.53,2,12.49,3.66,3.14,9.22,2.3,13.27,1"></path><path id="path68" class="cls-3" d="M86.58,50.21,86,46.76a28.4,28.4,0,0,1-3.25.66,6.3,6.3,0,0,1-3.37-.64,5.74,5.74,0,0,1-3-5.26,5.93,5.93,0,0,1,2.64-5.47c2.37-1.53,4.88-.61,6.71-.2l.84-3.61A12.85,12.85,0,0,0,76,33c-6.18,3.7-5.9,13.67-.13,16.92a10.78,10.78,0,0,0,5.17,1.3c1,0,4.65-.21,5.53-1"></path><path id="path70" class="cls-3" d="M65.21,23.92a2.63,2.63,0,1,1-2.63,2.63,2.63,2.63,0,0,1,2.63-2.63"></path><path id="path72" class="cls-3" d="M62.76,50.83h4.7V31.91h-4.7Z"></path><path id="path74" class="cls-3" d="M118.2,24.58H123V35.07h11V24.58h4.76V51H134V39.48H123V51H118.2V24.58"></path><path id="path76" class="cls-3" d="M184,50.83h4.76V23.34H184Z"></path><path id="path78" class="cls-4" d="M191.8,19.37a2.38,2.38,0,0,1,1.17.31,2.16,2.16,0,0,1,.89.88,2.44,2.44,0,0,1,.32,1.19,2.3,2.3,0,0,1-.32,1.18,2.08,2.08,0,0,1-.88.88,2.38,2.38,0,0,1-1.18.32,2.41,2.41,0,0,1-1.18-.32,2.13,2.13,0,0,1-.88-.88,2.41,2.41,0,0,1-.32-1.18,2.44,2.44,0,0,1,.32-1.19,2.22,2.22,0,0,1,.89-.88A2.44,2.44,0,0,1,191.8,19.37Zm0,.39a2.08,2.08,0,0,0-1,.26,1.88,1.88,0,0,0-.74.74,2,2,0,0,0-.26,1,2,2,0,0,0,.26,1,1.83,1.83,0,0,0,.73.73,2.09,2.09,0,0,0,1,.26,2.06,2.06,0,0,0,1-.26,1.92,1.92,0,0,0,.74-.73,2.09,2.09,0,0,0,.26-1,2,2,0,0,0-.27-1,1.82,1.82,0,0,0-.74-.74A2.05,2.05,0,0,0,191.8,19.76Zm-1,3.3V20.5h.88a2,2,0,0,1,.65.08.61.61,0,0,1,.33.24.74.74,0,0,1,.12.38.64.64,0,0,1-.21.48.75.75,0,0,1-.53.24.6.6,0,0,1,.22.14,2.51,2.51,0,0,1,.38.5l.31.5h-.5l-.23-.4a2,2,0,0,0-.44-.59.5.5,0,0,0-.33-.09h-.24v1.08Zm.41-1.44h.5a.79.79,0,0,0,.5-.11.36.36,0,0,0,.13-.28.37.37,0,0,0-.24-.33,1.31,1.31,0,0,0-.42,0h-.47v.77"></path></g></g></svg> 