<?xml version="1.0" encoding="UTF-8"?> <svg xmlns="http://www.w3.org/2000/svg" id="Layer_1" data-name="Layer 1" viewBox="0 0 246.31 70.86"><defs><style>.cls-1,.cls-2{fill:#09a;stroke:#4c4949;stroke-miterlimit:10;}.cls-2{stroke-width:0.25px;}</style></defs><title>rlogoedesign</title><path class="cls-1" d="M56.24,32.34A3.92,3.92,0,0,1,55,35.23a4.22,4.22,0,0,1-5.83,0,3.5,3.5,0,0,1-.67-.86s0,0,0,0a4,4,0,0,1-.47-2,4,4,0,0,1,1.19-3,4,4,0,0,1,2.89-1.17A4.11,4.11,0,0,1,55,29.4a2.57,2.57,0,0,1,.29.28s0,0,0,0A3.92,3.92,0,0,1,56.24,32.34Z"></path><polygon class="cls-1" points="58.13 7.39 57.45 7.18 58.12 7.33 58.13 7.39"></polygon><polygon class="cls-1" points="58.13 7.39 57.45 7.18 58.12 7.33 58.13 7.39"></polygon><path class="cls-1" d="M78.9,40.8l5.45,4.63L80,54l-7.08-1.78a27.58,27.58,0,0,1-5,4.47l-.65.44.93,7.34-11.1,4V53.11h.08l.64-.2h.12l.77-.28.67-.27.21-.1.33-.15.32-.15.65-.33H61c.4-.22.8-.46,1.18-.71.14-.09.28-.17.41-.27l.51-.35.21-.16.49-.37c.09-.08.19-.15.27-.23l.28-.23.74-.67.55-.55c.2-.2.38-.4.57-.61s.35-.4.52-.61l.14-.16.24-.32.14-.18.22-.29.44-.64.42-.67.08-.13.39-.69.2-.38c.1-.19.19-.37.28-.57l.27-.57c0-.13.07-.19.16-.4s.17-.43.25-.64c.16-.44.31-.88.44-1.33.07-.22.14-.5.19-.68a2.12,2.12,0,0,0,.13-.54v-.22l.12-.62a4.47,4.47,0,0,1,.12-.76,1.88,1.88,0,0,0,.09-.66V36a1.71,1.71,0,0,0,0-.32V34.19A20,20,0,0,0,67.53,22.8h0a19.23,19.23,0,0,0-15.86-8.41h-2l-.38,0h-.3a3.69,3.69,0,0,0-.74.12l-.46.08-.6.14-.8.21-.46.14-.62.21c-.29.11-.57.21-.85.33-.47.19-.94.4-1.39.63l-.36.19-.3.17L42,17c-.14.07-.27.16-.41.24l-.31.2-.44.29c-.44.3-.86.61-1.26.94l-.4.33-.67.61-.5.48-.41.43-.3.33q-.39.43-.75.9a3.45,3.45,0,0,0-3.28,6.07l-.15.46v.06c0,.06-.08.26-.11.41s0,.08,0,.12-.08.34-.13.51-.11.49-.16.74-.07.36-.1.55a2,2,0,0,0-.06.34,5.62,5.62,0,0,1-.1.7,1.45,1.45,0,0,0,0,.37v2.09A12.53,12.53,0,0,0,32.55,36v.46a1.24,1.24,0,0,0,.05.43c0,.14,0,.19,0,.28a4.43,4.43,0,0,0,.08.49c0,.16,0,.32.08.49.13.62.28,1.23.46,1.83a1.39,1.39,0,0,0,.14.42l.14.42c0,.14.2.55.31.82s.1.27.16.41l.18.4c0,.1.09.19.13.29l.21.43.31.59.3.54q.36.6.75,1.17l-.06,0,.23.33.2.28.21.27c.09.13.19.25.29.37a2.69,2.69,0,0,0,.27.32l.09.11c.18.22.37.43.57.64s.39.42.6.62l.4.37.35.32a17.82,17.82,0,0,0,1.46,1.28l.73.5.68.43h.06l.75.43.38.19.44.15.34.15c.39.18.8.35,1.2.5l.58.2a14.35,14.35,0,0,0,1.44.49l.32.08V68.15l-9.15-2.42.22-7.15a27.8,27.8,0,0,1-4.79-3.17l-6.8,2.85-2.28-3.13L21.2,50.5l4.65-5.4a27.42,27.42,0,0,1-1.79-5.8l-6.81-2,.47-9.61,1-.17a3.64,3.64,0,0,0,6.64-3,25.16,25.16,0,0,1,1.34-3,4.72,4.72,0,0,0,2.62-4.09v-.15a4.71,4.71,0,0,0-4.6-4.71l6.84-6.51,6.2,4.07a54.06,54.06,0,0,1,7.35-2.91L46.84,0l9.63.19,1.65,7.14-.67-.15.68.21V7.33A27.63,27.63,0,0,1,63.58,9.2l5.84-4.61,7.47,6.05-3.17,6.51a27.73,27.73,0,0,1,3.2,5h0l7.16.18,2,9.4-6.39,3A54.05,54.05,0,0,1,78.9,40.8Z"></path><polygon class="cls-1" points="58.13 7.39 57.45 7.18 58.12 7.33 58.13 7.39"></polygon><path class="cls-1" d="M55.33,45.1V70.86c-3.54,0-6.41-2.55-6.41-5.7V39.41a6.81,6.81,0,0,1,4.53,1.67A5.37,5.37,0,0,1,55.33,45.1Z"></path><circle class="cls-1" cx="47.38" cy="22.8" r="2.75"></circle><path class="cls-1" d="M42.8,27.55a3.45,3.45,0,1,1-6.9,0h0a2.67,2.67,0,0,1,0-.4,3.47,3.47,0,0,1,6.9.4Z"></path><circle class="cls-1" cx="15.43" cy="13.43" r="3.72"></circle><circle class="cls-1" cx="2.26" cy="26.46" r="2.26"></circle><circle class="cls-1" cx="6.71" cy="15.62" r="2.19"></circle><circle class="cls-1" cx="10.88" cy="24.82" r="3.47"></circle><path class="cls-1" d="M98.55,48.43H92.06v-27h6.49Z"></path><path class="cls-1" d="M125.23,48.43h-6.47l-9.57-16.8v16.8h-6.5v-27h6.5l9.55,16.8V21.43h6.49Z"></path><path class="cls-1" d="M142.73,41.25a2.7,2.7,0,0,0-1-2.23,12.62,12.62,0,0,0-3.55-1.65A31.29,31.29,0,0,1,134,35.72q-5.25-2.56-5.25-7.08a6.34,6.34,0,0,1,1.31-4,8.49,8.49,0,0,1,3.7-2.67,14.5,14.5,0,0,1,5.37-1,12.48,12.48,0,0,1,5.22,1A8.17,8.17,0,0,1,148,25.05a7.77,7.77,0,0,1,1.28,4.39h-6.49a3.28,3.28,0,0,0-1-2.56A3.92,3.92,0,0,0,139,26a4.48,4.48,0,0,0-2.75.77,2.27,2.27,0,0,0,.1,3.84,14.06,14.06,0,0,0,3.92,1.74,24.69,24.69,0,0,1,4.59,1.94q4.38,2.52,4.38,7a6.59,6.59,0,0,1-2.67,5.57,11.9,11.9,0,0,1-7.32,2,14.67,14.67,0,0,1-5.95-1.18,8.91,8.91,0,0,1-4-3.23,8.33,8.33,0,0,1-1.3-4.78h6.53a4.12,4.12,0,0,0,1.12,3.2,5.29,5.29,0,0,0,3.65,1,4.16,4.16,0,0,0,2.54-.69A2.3,2.3,0,0,0,142.73,41.25Z"></path><path class="cls-1" d="M158.81,39.27v9.16H152.3v-27h10.77a12.49,12.49,0,0,1,5.48,1.14,8.58,8.58,0,0,1,3.69,3.24,8.94,8.94,0,0,1,1.31,4.78,7.79,7.79,0,0,1-2.83,6.31q-2.82,2.37-7.76,2.37Zm0-5h4.26a4,4,0,0,0,2.93-1,3.57,3.57,0,0,0,1-2.67,4.36,4.36,0,0,0-1-3,3.68,3.68,0,0,0-2.78-1.15h-4.34Z"></path><path class="cls-1" d="M198.46,48.43H192l-9.56-16.8v16.8h-6.51v-27h6.51L192,38.23V21.43h6.49Z"></path><path class="cls-1" d="M219.15,37H208.91v6.45H221v5H202.4v-27H221v5H208.91v5.7h10.24Z"></path><path class="cls-1" d="M245,26.45h-8.1v22h-6.51v-22h-8v-5H245Z"></path><path class="cls-2" d="M191.68,60.82h-1.07V51.63h1.07Z"></path><path class="cls-2" d="M199.6,52.61H197v8.21h-1.08V52.61h-2.65v-1h6.38Z"></path><path class="cls-2" d="M202.93,60.45V59.18a2.32,2.32,0,0,0,.53.35,4.56,4.56,0,0,0,1.31.42,3.36,3.36,0,0,0,.63.06,2.44,2.44,0,0,0,1.49-.37,1.37,1.37,0,0,0,.32-1.71,2,2,0,0,0-.45-.5,4.39,4.39,0,0,0-.68-.44l-.85-.44c-.32-.16-.62-.32-.9-.49a3.82,3.82,0,0,1-.72-.55,2,2,0,0,1-.66-1.58,2.08,2.08,0,0,1,.27-1.09,2.34,2.34,0,0,1,.73-.77,3.21,3.21,0,0,1,1-.44,5.55,5.55,0,0,1,3.15.17V53a3.59,3.59,0,0,0-2.09-.57,3.27,3.27,0,0,0-.7.08,1.79,1.79,0,0,0-.63.24,1.24,1.24,0,0,0-.45.43,1.1,1.1,0,0,0-.17.64,1.29,1.29,0,0,0,.13.61,1.33,1.33,0,0,0,.39.46,3.17,3.17,0,0,0,.62.41c.25.14.53.28.85.44s.64.33.94.51a4.08,4.08,0,0,1,.77.6,2.91,2.91,0,0,1,.53.72,2,2,0,0,1,.19.91,2.19,2.19,0,0,1-.26,1.15,2.21,2.21,0,0,1-.72.77,3.06,3.06,0,0,1-1,.43,6.44,6.44,0,0,1-1.24.13h-.54a4.07,4.07,0,0,1-.66-.1,4.91,4.91,0,0,1-.63-.17A1.54,1.54,0,0,1,202.93,60.45Z"></path><path class="cls-2" d="M215,60.82h-1v-1h0a2.15,2.15,0,0,1-2,1.2c-1.57,0-2.35-.93-2.35-2.8v-4h1V58q0,2.07,1.59,2.07a1.61,1.61,0,0,0,1.26-.56A2.18,2.18,0,0,0,214,58V54.26h1Z"></path><path class="cls-2" d="M217.71,59.87h0v4h-1.06V54.26h1.06v1.15h0a2.49,2.49,0,0,1,2.27-1.3,2.37,2.37,0,0,1,2,.88,3.57,3.57,0,0,1,.71,2.36,4,4,0,0,1-.8,2.64,2.65,2.65,0,0,1-2.19,1A2.18,2.18,0,0,1,217.71,59.87Zm0-2.64v.91a2,2,0,0,0,.52,1.39,1.8,1.8,0,0,0,1.35.56,1.75,1.75,0,0,0,1.49-.73,3.3,3.3,0,0,0,.55-2,2.65,2.65,0,0,0-.51-1.72,1.69,1.69,0,0,0-1.37-.62,1.87,1.87,0,0,0-1.48.64,2.32,2.32,0,0,0-.57,1.57Z"></path><path class="cls-2" d="M225,59.87h0v4H224V54.26H225v1.15h0a2.49,2.49,0,0,1,2.27-1.3,2.37,2.37,0,0,1,2,.88,3.68,3.68,0,0,1,.71,2.36,4.09,4.09,0,0,1-.8,2.64A2.63,2.63,0,0,1,227,61,2.2,2.2,0,0,1,225,59.87Zm0-2.64v.91a2,2,0,0,0,.53,1.39,1.8,1.8,0,0,0,1.35.56,1.75,1.75,0,0,0,1.49-.73,3.29,3.29,0,0,0,.54-2,2.66,2.66,0,0,0-.5-1.72A1.68,1.68,0,0,0,227,55a1.87,1.87,0,0,0-1.48.64A2.35,2.35,0,0,0,225,57.23Z"></path><path class="cls-2" d="M234.06,61a3.08,3.08,0,0,1-2.33-.92,3.47,3.47,0,0,1-.86-2.44,3.53,3.53,0,0,1,.9-2.58,3.26,3.26,0,0,1,2.44-.93,3,3,0,0,1,2.29.9,4.09,4.09,0,0,1-.06,5A3.13,3.13,0,0,1,234.06,61Zm.07-6a2,2,0,0,0-1.6.69,2.83,2.83,0,0,0-.59,1.9,2.67,2.67,0,0,0,.6,1.84,2,2,0,0,0,1.59.67,1.91,1.91,0,0,0,1.57-.66,3.51,3.51,0,0,0,0-3.77A1.89,1.89,0,0,0,234.13,55Z"></path><path class="cls-2" d="M242,55.32a1.29,1.29,0,0,0-.79-.21,1.34,1.34,0,0,0-1.13.64,2.94,2.94,0,0,0-.45,1.73v3.34h-1V54.26h1.05v1.35h0a2.26,2.26,0,0,1,.69-1.08,1.6,1.6,0,0,1,1-.39,1.69,1.69,0,0,1,.63.09Z"></path><path class="cls-2" d="M246.31,60.76a2,2,0,0,1-1,.2c-1.15,0-1.73-.64-1.73-1.92V55.16h-1.13v-.9h1.13v-1.6l1-.34v1.94h1.66v.9h-1.66v3.7a1.49,1.49,0,0,0,.23.94.86.86,0,0,0,.74.28,1.07,1.07,0,0,0,.69-.22Z"></path></svg> 